<?xml version="1.0" encoding="UTF-8"?>
<svg xmlns="http://www.w3.org/2000/svg" baseProfile="tiny" version="1.2" viewBox="0 0 413.02 136.47">
  <!-- Generator: Adobe Illustrator 28.6.0, SVG Export Plug-In . SVG Version: 1.2.0 Build 709)  -->
  <g>
    <g id="copyright">
      <g>
        <g>
          <path d="M157.19,30.4h-10.18l-1.94,4.7h-5.2l9.77-21.92h5.01l9.8,21.92h-5.32l-1.94-4.7ZM155.59,26.55l-3.48-8.39-3.48,8.39h6.95Z" fill="#0f4567"/>
          <path d="M166.09,25.46v-12.27h5.07v12.09c0,4.16,1.82,5.89,4.88,5.89s4.88-1.72,4.88-5.89v-12.09h5.01v12.27c0,6.45-3.69,10.02-9.93,10.02s-9.93-3.57-9.93-10.02Z" fill="#0f4567"/>
          <path d="M195.11,17.32h-7.01v-4.13h19.1v4.13h-7.01v17.78h-5.07v-17.78Z" fill="#0f4567"/>
          <path d="M208.23,24.14c0-6.51,5.07-11.33,11.99-11.33s11.99,4.79,11.99,11.33-5.1,11.33-11.99,11.33-11.99-4.82-11.99-11.33ZM227.08,24.14c0-4.16-2.94-7.01-6.86-7.01s-6.86,2.85-6.86,7.01,2.94,7.01,6.86,7.01,6.86-2.85,6.86-7.01Z" fill="#0f4567"/>
          <path d="M243.18,32.94l1.72-3.82c1.85,1.35,4.6,2.29,7.23,2.29,3.01,0,4.23-1,4.23-2.35,0-4.1-12.74-1.28-12.74-9.42,0-3.73,3.01-6.83,9.24-6.83,2.76,0,5.57.66,7.61,1.94l-1.57,3.85c-2.04-1.16-4.13-1.72-6.07-1.72-3.01,0-4.16,1.13-4.16,2.5,0,4.04,12.74,1.25,12.74,9.3,0,3.66-3.04,6.79-9.3,6.79-3.48,0-6.98-1.03-8.92-2.54Z" fill="#0f4567"/>
          <path d="M284.98,13.18v21.92h-5.07v-8.99h-9.96v8.99h-5.07V13.18h5.07v8.64h9.96v-8.64h5.07Z" fill="#0f4567"/>
          <path d="M298.17,26.49l-2.94,3.07v5.54h-5.04V13.18h5.04v10.24l9.71-10.24h5.64l-9.08,9.77,9.61,12.15h-5.92l-7.01-8.61Z" fill="#0f4567"/>
          <path d="M311.2,24.14c0-6.51,5.07-11.33,11.99-11.33s11.99,4.79,11.99,11.33-5.1,11.33-11.99,11.33-11.99-4.82-11.99-11.33ZM330.05,24.14c0-4.16-2.94-7.01-6.86-7.01s-6.86,2.85-6.86,7.01,2.94,7.01,6.86,7.01,6.86-2.85,6.86-7.01Z" fill="#0f4567"/>
          <path d="M339,13.18h5.07v17.79h10.99v4.13h-16.06V13.18Z" fill="#0f4567"/>
          <path d="M357.92,13.18h5.07v17.79h10.99v4.13h-16.06V13.18Z" fill="#0f4567"/>
          <path d="M391.45,30.4h-10.18l-1.94,4.7h-5.2l9.77-21.92h5.01l9.8,21.92h-5.32l-1.94-4.7ZM389.86,26.55l-3.48-8.39-3.48,8.39h6.95Z" fill="#0f4567"/>
        </g>
        <g>
          <path d="M170.96,96.58h-6.54v18h-24.13V43h34.46c19.94,0,32.62,10.43,32.62,27,0,10.33-4.91,18.1-13.5,22.5l15.03,22.09h-25.77l-12.17-18ZM173.21,61.61h-8.79v16.77h8.79c6.65,0,9.82-3.17,9.82-8.39s-3.17-8.39-9.82-8.39Z" fill="#f24d5d"/>
          <path d="M216.47,43h24.13v71.58h-24.13V43Z" fill="#f24d5d"/>
          <path d="M322.82,43v71.58h-19.84l-27.2-32.52v32.52h-23.52V43h19.84l27.2,32.52v-32.52h23.52Z" fill="#f24d5d"/>
          <path d="M383.26,102.1h-27.2l-4.81,12.48h-24.54l31.29-71.58h23.73l31.29,71.58h-24.95l-4.81-12.48ZM376.61,84.72l-6.95-18-6.95,18h13.91Z" fill="#f24d5d"/>
        </g>
        <g>
          <path d="M80.99,42.08c-1.08,0-2.06,1.11-2.05,2.29,0,.99.65,1.69,1.55,1.69,1.06,0,2.08-1.13,2.07-2.29,0-.94-.71-1.7-1.57-1.69Z" fill="#0f4567"/>
          <path d="M71.34,41.51c-.23-.02-.46-.01-.7-.01-5.27.04-10.54.07-15.81.11-2.72.02-5.43.07-8.15.12-.46,0-.93.09-.92.7.01.56.2.9.9.92,4.13.08,8.26.13,12.4.1,4.13-.1,8.26-.19,12.4-.29.33,0,.61.04.73-.42.22-.86.04-1.16-.85-1.23Z" fill="#0f4567"/>
          <path d="M36.25,31.53c.7.37,1.47.57,2.23.76,1.74.43,3.51.22,5.27.2,6.29-.07,12.59-.19,18.88-.24,5.01-.04,10.02-.6,15.03-.09.51.04,1.01-.02,1.52-.14.74-.19,1.49-.35,2.24-.5.75-.15.99-.48.79-1.22-.07-.27-.17-.53-.28-.79-1.39-3.28-3.17-6.34-5.13-9.31-1.1-1.68-1.13-1.67-3.16-1.69-6.09-.06-12.17.07-18.25.21-4.16.1-8.31.22-12.46.52-.66.05-1.04.31-1.38.84-2.19,3.46-3.87,7.18-5.58,10.88-.17.37.06.45.28.57Z" fill="#0f4567"/>
          <path d="M65.43,53.73c-2.04,0-4.08,0-6.13,0s-4.18,0-6.27,0c-.8,0-1.15.35-1.16,1.14-.01,1.04,0,2.09,0,3.13,0,.75.34,1.13,1.09,1.14,4.21.02,8.43.02,12.64,0,.78,0,1.1-.39,1.11-1.2,0-.97,0-1.95,0-2.92,0-.98-.31-1.29-1.29-1.29Z" fill="#0f4567"/>
          <path d="M85.07,45.13c1.04-.01,1.81-.89,1.81-2.05,0-1.39-1.12-2.62-2.36-2.61-1.04,0-1.81.89-1.8,2.06,0,1.4,1.1,2.62,2.35,2.6Z" fill="#0f4567"/>
          <path d="M46.93,45.49c.63,1.14,1.2,2.16,2,3.04.41.45.93.66,1.52.76,5.6.91,11.2.69,16.79-.03,1.04-.13,2.01-.53,2.59-1.46.47-.74.8-1.56,1.24-2.44-4.07.51-8.04.94-12.03.95-4.01.01-8-.37-12.12-.83Z" fill="#0f4567"/>
          <path d="M37.83,46.06c.88-.01,1.53-.76,1.52-1.74-.02-1.16-1-2.24-2.06-2.24-.88,0-1.57.75-1.56,1.71,0,1.19,1.03,2.29,2.11,2.27Z" fill="#0f4567"/>
          <path d="M33.93,45.01c1.29-.5,1.98-2.13,1.46-3.4-.3-.72-.92-1.14-1.67-1.14-1.71,0-2.9,2.24-2.01,3.78.45.78,1.37,1.09,2.22.76Z" fill="#0f4567"/>
          <path d="M118.08,3.9c-.97-2.29-3.24-3.9-5.89-3.9H6.39C3.74,0,1.47,1.61.5,3.9c-.32.76-.5,1.61-.5,2.49v78.18c0,4.68.9,9.22,2.53,13.44.05.14.11.28.17.42.58,1.45,1.25,2.86,2.01,4.23.1.19.21.37.31.56.23.4.47.8.71,1.19.13.21.27.41.4.62.4.6.81,1.2,1.24,1.78.2.27.41.55.62.82.23.29.46.58.7.86.26.32.54.63.81.93.2.23.4.46.61.68.46.49.94.97,1.43,1.43.2.19.41.38.61.56.38.35.76.68,1.16,1.01.18.16.37.31.56.46.57.46,1.14.9,1.74,1.32.14.1.28.19.42.29.5.35,1.01.68,1.54,1.01.18.11.37.23.55.34.66.39,1.33.78,2.02,1.13l33.83,17.5c1.67.86,3.49,1.29,5.32,1.29,1.82,0,3.65-.43,5.32-1.29l33.83-17.5c.69-.36,1.36-.74,2.02-1.13.19-.11.37-.22.55-.34.52-.32,1.03-.66,1.54-1.01.14-.1.28-.19.42-.29.59-.42,1.17-.87,1.74-1.32.19-.15.37-.31.56-.46.39-.33.78-.67,1.16-1.01.21-.19.41-.37.61-.56.49-.47.97-.94,1.43-1.43.21-.22.41-.45.61-.68.28-.31.55-.62.81-.93.24-.29.47-.57.7-.86.21-.27.41-.54.62-.82.43-.58.84-1.17,1.24-1.78.14-.21.27-.41.4-.62.25-.39.48-.79.71-1.19.11-.19.21-.37.32-.56.76-1.36,1.43-2.78,2.01-4.23.06-.14.11-.28.17-.42,1.64-4.22,2.53-8.76,2.53-13.44V6.39c0-.88-.18-1.72-.5-2.49ZM15.95,96.42l1.49,4.59-3.91-2.84-3.91,2.84,1.49-4.59-3.91-2.84h4.83l1.49-4.59,1.49,4.59h4.83l-3.91,2.84ZM26.92,45.4c.15-.78.54-1.47.78-2.22.72-2.25,2.15-4.08,3.43-6,.56-.85,1.11-1.71,1.68-2.56.13-.2.17-.37.09-.58-.08-.22-.15-.44-.22-.66q-.43-1.34-1.86-1.38s-.05,0-.07,0c-.76-.15-1.65-.15-1.97-1.03-.31-.85.21-2.34.93-2.81,1.03-.67,2.19-.99,3.39-1.18.69-.11,1.11.25,1.23,1.02.18,1.21.36,2.44.04,3.66-.03.13-.04.27.14.48.92-2.27,1.86-4.46,2.91-6.6.93-1.89,1.99-3.72,3.11-5.51,1.12-1.8,2.61-2.67,4.77-2.83,6.97-.54,13.95-.91,20.95-.78,2.14.04,4.27.15,6.39.4,2.08.25,3.59,1.43,4.82,3.02,1.63,2.09,2.89,4.42,4.13,6.76.89,1.68,1.74,3.38,2.32,5.2.08.25.15.54.41.74.29-.38.32-.76.23-1.22-.24-1.18-.06-2.36.17-3.52.12-.64.59-.94,1.24-.82,1.1.2,2.17.5,3.14,1.07.86.51,1.41,1.97,1.13,2.93-.09.32-.31.5-.6.64-.62.29-1.26.45-1.95.38-.61-.07-.99.18-1.2.8-.65,1.89-.69,1.9.51,3.48,1.42,1.87,2.59,3.86,3.64,5.97,1.41,2.83,1.44,5.75,1.36,8.74-.04,1.3-.11,2.6-.32,3.89-.09.55.14,1.05.14,1.58-.02,4.28-.01,8.55-.01,12.83,0,1.93-.78,2.78-2.72,2.84-1.67.05-3.34.03-5.02,0-1.21-.02-1.86-.54-2.05-1.76-.17-1.1-.25-2.22-.28-3.33-.01-.67-.28-.76-.86-.7-3.6.41-7.21.65-10.83.82-7.45.33-14.9.32-22.36.1-3.27-.1-6.54-.38-9.8-.62-.55-.04-.77.02-.78.65-.01.97-.12,1.95-.25,2.91-.18,1.31-.81,1.89-2.13,1.92-1.88.05-3.76.14-5.64-.06-1.38-.14-2.25-1.06-2.26-2.46-.03-4.53-.1-9.06.03-13.59.05-1.52-.24-2.99-.26-4.49-.02-2.04-.06-4.08.32-6.1ZM38.05,114.73l-6.32-4.59-6.32,4.59,2.42-7.43-6.32-4.59h7.82l2.42-7.43,2.42,7.43h7.82l-6.32,4.59,2.42,7.43ZM67.99,126.93l-8.97-6.52-8.97,6.52,3.43-10.55-8.97-6.52h11.09l3.43-10.55,3.43,10.55h11.09l-8.97,6.52,3.43,10.55ZM93.12,114.58l-6.32-4.59-6.32,4.59,2.42-7.43-6.32-4.59h7.82l2.42-7.43,2.42,7.43h7.82l-6.32,4.59,2.42,7.43ZM107.4,96.27l1.49,4.59-3.91-2.84-3.91,2.84,1.49-4.59-3.91-2.84h4.83l1.49-4.59,1.49,4.59h4.83l-3.91,2.84Z" fill="#0f4567"/>
        </g>
      </g>
    </g>
  </g>
</svg>